<svg xmlns="http://www.w3.org/2000/svg" width="191.373" height="185.845" viewBox="0 0 191.373 185.845"><g transform="translate(-138.254 -143.52)"><path d="M265.87,143.54c3.04-.19,6.52.99,9.17,2.16,7.81,3.45,15.29,7.57,22.41,11.59,2.34,1.32,4.74,2.8,7.26,4.08,5.06,2.56,9.84,4.59,14.9,7.77,2.72,1.71,5.67,3.78,6.75,6.49,2.03,5.12-.47,11.48-2.29,15.16-2.17,4.37-4.43,8.46-6.5,12.48-4.36,8.47-8.53,16.16-13.12,24.83-4.61,8.72-8.67,16.94-12.73,25.22-3.02,6.15-6.53,12.54-9.81,18.72-1.84,3.46-3.34,6.87-7.01,8.28a8.851,8.851,0,0,1-3.56.38c-2.97-.3-5.86-2.05-8.53-3.31-2.69-1.27-5.34-2.73-7.77-4.08-9.74-5.4-21.29-10.63-30.95-16.43-4.66-2.79-10.24-6.16-12.61-10.95-2.72-5.52.85-13.25,3.06-17.7,2.18-4.41,4.31-8.17,6.49-11.85,2.36-3.96,4.64-8.03,6.75-11.71a267.562,267.562,0,0,0,12.73-24.07c1.8-4.05,3.99-8.59,5.99-12.35,3.03-5.71,6.43-12.01,10.06-17.57a23.616,23.616,0,0,1,4.08-5.09A8.752,8.752,0,0,1,265.87,143.54Z" fill="#c1d5e8" fill-rule="evenodd"/><path d="M293.85,164.16c.11.03.28,0,.28.13,1.9-.37,2.8-2.42,3.62-3.87.4-.7.85-1.46,1.21-2.26-.5-.29-1.01-.58-1.51-.86-.27-.15-.55-.31-.82-.46-.5.75-.96,1.57-1.39,2.38C294.48,160.67,293.17,162.4,293.85,164.16Z" fill="#fff"/><path d="M289.25,172.04a46.533,46.533,0,0,0-3.49,5.75c-.62,1.4-.71,2.87.56,2.94.96.05,1.82-1.64,2.23-2.27.68-1.04,1.38-1.93,1.81-2.67,1.23-2.1,2.5-3.74,2.37-6.28C291,168.22,290.02,170.86,289.25,172.04Z" fill="#fff"/><path d="M281.17,187.54a31.718,31.718,0,0,0-4.88,8.02c-.35.84-.84,2.03.14,2.67,1.21.07,1.86-1.1,2.37-1.87a31.427,31.427,0,0,0,1.53-2.81c.99-1.85,2.41-3.85,2.37-6.01C282.4,187.27,281.42,187.09,281.17,187.54Z" fill="#fff"/><path d="M270.72,205.58a24.838,24.838,0,0,0-2.51,4.28c-.45.8-2.73,3.72-1.39,4.54.78.48,2-.84,2.37-1.34a25.389,25.389,0,0,0,1.53-2.54c1.12-1.8,2.31-3.38,2.23-5.48C272.15,204.43,271.23,205.04,270.72,205.58Z" fill="#fff"/><path d="M262.77,222.42c0,.17-.24.12-.28.27a12.953,12.953,0,0,0-3.48,4.68c-.51,1-2.92,4.78-1.53,5.48,1.02.52,1.88-.92,2.37-1.61a36.121,36.121,0,0,0,3.07-5.34c.46-.93,1.27-1.91.97-3.08A1.923,1.923,0,0,0,262.77,222.42Z" fill="#fff"/><path d="M252.74,240.6a37.768,37.768,0,0,0-3.06,4.68c-.45.8-3,4.63-1.12,4.94.92.15,1.67-1.15,2.09-1.74.59-.83,1.13-1.77,1.53-2.41,1.12-1.76,2.26-3.34,2.09-5.48C253.97,240.33,252.99,240.15,252.74,240.6Z" fill="#fff"/><path d="M244.52,258.24c-.3-.27-1.28-.45-1.54,0a13.157,13.157,0,0,0-2.65,4.01,17.514,17.514,0,0,0-1.21,2.78c.65.33,1.3.67,1.96,1a15.671,15.671,0,0,0,1.76-2.84C243.76,261.55,244.67,260.07,244.52,258.24Z" fill="#fff"/><path d="M267.9,246.29c-.24.94-1.39.83-2.02,1.01-4.56,1.3-8.83,4.25-8.94,10.24a10.184,10.184,0,0,0,11.54,10.38,9.752,9.752,0,0,0,6.34-3.32c.53-.59.96-1.87,2.31-1.3,1.11,2.13-1.3,3.77-2.74,4.76a12.569,12.569,0,0,1-19.61-11.68c.48-5.11,4.69-10.08,9.95-10.67A4.121,4.121,0,0,1,267.9,246.29Z" fill="#334f70" fill-rule="evenodd" opacity="0.38"/><path d="M266.6,250.48a9.418,9.418,0,0,1,4.76.72,7.765,7.765,0,0,1,3.61,8.36c-.84,3.21-6.23,7.36-10.96,5.05a7.941,7.941,0,0,1-3.61-4.47,8.089,8.089,0,0,1,4.33-9.37A7.2,7.2,0,0,1,266.6,250.48Z" fill="#fff" fill-rule="evenodd"/><path d="M266.75,251.48c1.48,2.1,2.37,5.45,2.89,8.65.15.95.72,2.21-.14,3.03-1.22.27-1.52-1.08-1.88-2.02-.32-.86-.62-1.96-.87-2.89-.53-1.98-1.34-4.9-1.01-6.34a.39.39,0,0,1,.29-.43Z" fill="#334f70" fill-rule="evenodd" opacity="0.38"/><path d="M283.14,221.29c-.24.94-1.39.83-2.02,1.01-4.56,1.3-8.83,4.25-8.94,10.24a10.184,10.184,0,0,0,11.54,10.38,9.708,9.708,0,0,0,6.34-3.32c.53-.59.96-1.87,2.31-1.3,1.11,2.13-1.3,3.77-2.74,4.76a12.569,12.569,0,0,1-19.61-11.68c.48-5.11,4.69-10.09,9.95-10.67A4.038,4.038,0,0,1,283.14,221.29Z" fill="#334f70" fill-rule="evenodd" opacity="0.38"/><path d="M281.84,225.47a9.527,9.527,0,0,1,4.76.72,7.774,7.774,0,0,1,3.6,8.36c-.84,3.21-6.23,7.36-10.96,5.05a7.927,7.927,0,0,1-3.6-4.47,8.072,8.072,0,0,1,4.33-9.37A7.649,7.649,0,0,1,281.84,225.47Z" fill="#fff" fill-rule="evenodd"/><path d="M281.99,226.48c1.48,2.1,2.37,5.45,2.88,8.65.15.95.71,2.21-.14,3.03-1.22.27-1.52-1.08-1.88-2.02-.32-.85-.62-1.96-.87-2.88-.53-1.98-1.34-4.9-1.01-6.34a.409.409,0,0,1,.29-.44Z" fill="#334f70" fill-rule="evenodd" opacity="0.38"/><path d="M296.08,196.54c-.24.95-1.39.83-2.02,1.01-4.56,1.3-8.83,4.25-8.94,10.24a10.184,10.184,0,0,0,11.54,10.38,9.757,9.757,0,0,0,6.35-3.32c.53-.58.96-1.86,2.31-1.3,1.11,2.13-1.3,3.77-2.74,4.76a12.569,12.569,0,0,1-19.61-11.68c.48-5.11,4.69-10.08,9.95-10.67A4.014,4.014,0,0,1,296.08,196.54Z" fill="#334f70" fill-rule="evenodd" opacity="0.38"/><path d="M294.78,200.72a9.418,9.418,0,0,1,4.76.72,7.745,7.745,0,0,1,3.6,8.36c-.84,3.21-6.23,7.36-10.96,5.04a7.948,7.948,0,0,1-3.61-4.47A8.083,8.083,0,0,1,292.9,201,8.376,8.376,0,0,1,294.78,200.72Z" fill="#fff" fill-rule="evenodd"/><path d="M294.93,201.73c1.48,2.1,2.36,5.45,2.88,8.66.15.95.72,2.21-.15,3.03-1.22.27-1.52-1.08-1.87-2.02-.32-.85-.62-1.96-.86-2.88-.53-1.98-1.34-4.9-1.01-6.35a.4.4,0,0,1,.29-.43C294.45,201.73,294.69,201.73,294.93,201.73Z" fill="#334f70" fill-rule="evenodd" opacity="0.38"/><path d="M309.81,169.8c-.24.95-1.39.83-2.02,1.01-4.56,1.3-8.83,4.25-8.94,10.24a10.179,10.179,0,0,0,11.54,10.38,9.708,9.708,0,0,0,6.34-3.32c.53-.59.96-1.87,2.31-1.3,1.11,2.13-1.3,3.77-2.74,4.76a12.572,12.572,0,0,1-19.61-11.68c.48-5.11,4.7-10.08,9.95-10.67A4.029,4.029,0,0,1,309.81,169.8Z" fill="#334f70" fill-rule="evenodd" opacity="0.38"/><path d="M308.52,173.98a9.418,9.418,0,0,1,4.76.72,7.765,7.765,0,0,1,3.61,8.36c-.84,3.21-6.23,7.36-10.96,5.05a7.927,7.927,0,0,1-3.6-4.47,8.083,8.083,0,0,1,4.33-9.37A7.336,7.336,0,0,1,308.52,173.98Z" fill="#fff" fill-rule="evenodd"/><path d="M308.66,174.99c1.48,2.1,2.37,5.45,2.89,8.65.15.95.72,2.21-.15,3.03-1.22.27-1.52-1.08-1.87-2.02-.32-.86-.62-1.96-.87-2.88-.53-1.98-1.34-4.9-1.01-6.35a.4.4,0,0,1,.29-.43Z" fill="#334f70" fill-rule="evenodd" opacity="0.38"/><path d="M231.96,227.25c-.24.94-1.39.83-2.02,1.01-4.56,1.3-8.83,4.25-8.94,10.24a10.184,10.184,0,0,0,11.54,10.38,9.757,9.757,0,0,0,6.35-3.32c.53-.59.96-1.86,2.31-1.3,1.11,2.13-1.3,3.77-2.74,4.76a12.569,12.569,0,0,1-19.61-11.68c.48-5.11,4.69-10.08,9.95-10.67A4.106,4.106,0,0,1,231.96,227.25Z" fill="#334f70" fill-rule="evenodd" opacity="0.38"/><path d="M230.66,231.44a9.527,9.527,0,0,1,4.76.72,7.78,7.78,0,0,1,3.61,8.36c-.84,3.21-6.23,7.36-10.96,5.05a7.981,7.981,0,0,1-3.61-4.47,8.083,8.083,0,0,1,4.33-9.37A6.8,6.8,0,0,1,230.66,231.44Z" fill="#fff" fill-rule="evenodd"/><path d="M230.81,232.44c1.48,2.1,2.37,5.45,2.89,8.65.15.95.72,2.21-.14,3.03-1.22.27-1.53-1.08-1.88-2.02-.32-.85-.62-1.96-.87-2.88-.53-1.98-1.34-4.9-1.01-6.34a.388.388,0,0,1,.29-.43C230.33,232.44,230.57,232.44,230.81,232.44Z" fill="#334f70" fill-rule="evenodd" opacity="0.38"/><path d="M247.2,202.25c-.24.94-1.39.83-2.02,1.01-4.56,1.3-8.83,4.25-8.94,10.24a10.184,10.184,0,0,0,11.54,10.38,9.757,9.757,0,0,0,6.35-3.32c.53-.59.96-1.87,2.3-1.3,1.11,2.13-1.3,3.77-2.74,4.76a12.572,12.572,0,0,1-19.61-11.68c.48-5.11,4.69-10.08,9.95-10.67A4.038,4.038,0,0,1,247.2,202.25Z" fill="#334f70" fill-rule="evenodd" opacity="0.38"/><path d="M245.9,206.43a9.4,9.4,0,0,1,4.76.72,7.76,7.76,0,0,1,3.6,8.36c-.84,3.21-6.23,7.37-10.96,5.05a7.927,7.927,0,0,1-3.6-4.47,8.078,8.078,0,0,1,4.33-9.37A7.649,7.649,0,0,1,245.9,206.43Z" fill="#fff" fill-rule="evenodd"/><path d="M246.04,207.44c1.48,2.1,2.37,5.45,2.89,8.65.15.95.71,2.21-.15,3.03-1.22.27-1.52-1.08-1.87-2.02-.32-.85-.62-1.96-.87-2.88-.53-1.98-1.34-4.9-1.01-6.34a.388.388,0,0,1,.29-.43C245.57,207.44,245.81,207.44,246.04,207.44Z" fill="#334f70" fill-rule="evenodd" opacity="0.38"/><path d="M260.14,177.5c-.24.94-1.39.83-2.02,1.01-4.56,1.31-8.83,4.25-8.94,10.24a10.184,10.184,0,0,0,11.54,10.38,9.8,9.8,0,0,0,6.35-3.32c.53-.59.96-1.87,2.31-1.3,1.11,2.13-1.3,3.77-2.74,4.76a12.569,12.569,0,0,1-19.61-11.68c.48-5.11,4.69-10.08,9.95-10.67A4.022,4.022,0,0,1,260.14,177.5Z" fill="#334f70" fill-rule="evenodd" opacity="0.38"/><path d="M258.84,181.68a9.418,9.418,0,0,1,4.76.72,7.773,7.773,0,0,1,3.61,8.37c-.84,3.21-6.23,7.36-10.96,5.05a7.927,7.927,0,0,1-3.6-4.47,8.083,8.083,0,0,1,4.33-9.37A7.025,7.025,0,0,1,258.84,181.68Z" fill="#fff" fill-rule="evenodd"/><path d="M258.99,182.69c1.48,2.1,2.36,5.45,2.89,8.65.15.95.72,2.21-.14,3.03-1.22.27-1.53-1.08-1.87-2.02-.32-.85-.62-1.96-.87-2.88-.53-1.98-1.34-4.9-1.01-6.34a.4.4,0,0,1,.29-.44Z" fill="#334f70" fill-rule="evenodd" opacity="0.38"/><path d="M273.87,150.76c-.24.95-1.39.83-2.02,1.01-4.55,1.3-8.83,4.25-8.94,10.24a10.176,10.176,0,0,0,11.53,10.38,9.757,9.757,0,0,0,6.35-3.32c.53-.59.96-1.87,2.31-1.3,1.11,2.13-1.3,3.77-2.74,4.76a12.569,12.569,0,0,1-19.61-11.68c.48-5.11,4.69-10.08,9.95-10.67A4.029,4.029,0,0,1,273.87,150.76Z" fill="#334f70" fill-rule="evenodd" opacity="0.38"/><path d="M272.57,154.94a9.418,9.418,0,0,1,4.76.72,7.78,7.78,0,0,1,3.61,8.36c-.85,3.21-6.23,7.36-10.96,5.05a7.941,7.941,0,0,1-3.61-4.47,8.1,8.1,0,0,1,4.33-9.37A7.648,7.648,0,0,1,272.57,154.94Z" fill="#fff" fill-rule="evenodd"/><path d="M272.72,155.95c1.48,2.1,2.36,5.45,2.88,8.65.15.95.71,2.21-.14,3.03-1.22.27-1.53-1.08-1.88-2.02-.32-.85-.62-1.96-.87-2.88-.53-1.98-1.34-4.9-1.01-6.35a.388.388,0,0,1,.29-.43Z" fill="#334f70" fill-rule="evenodd" opacity="0.38"/><path d="M138.94,229.67,143,234.8c2,2.53,7.77,1.3,12.88-2.75s7.64-9.37,5.64-11.9l-4.06-5.13Z" fill="#e8bd54" fill-rule="evenodd"/><path d="M138.94,229.67,143,234.8c2,2.53,7.77,1.3,12.88-2.75s7.64-9.37,5.64-11.9l-4.06-5.13Z" fill="#334f70" fill-rule="evenodd" opacity="0.14"/><path d="M157.46,215.02c2,2.53-.52,7.86-5.64,11.9s-10.88,5.28-12.88,2.75.52-7.86,5.64-11.9S155.46,212.49,157.46,215.02Z" fill="#e8bd54" fill-rule="evenodd"/><path d="M156.06,214.03a5.361,5.361,0,0,0-1.62-.31c-1.04.95-2.26,2.27-3.44,3.54-2,2.14-4.3,4.65-6.14,6.79-1.75,2.03-4.19,4.66-5.12,6.34a4.006,4.006,0,0,0,1.24.48c3.57-2.91,8.62-8.91,12.59-13.77C154.33,216.17,155.4,215.03,156.06,214.03Z" fill="#fff"/><path d="M206.87,198.14l.41,6.53c.2,3.22,5.64,5.49,12.15,5.09s11.62-3.34,11.42-6.56l-.41-6.53Z" fill="#e8bd54" fill-rule="evenodd"/><path d="M206.87,198.14l.41,6.53c.21,3.22,5.63,5.5,12.15,5.09s11.62-3.34,11.42-6.56l-.41-6.53Z" fill="#334f70" fill-rule="evenodd" opacity="0.14"/><path d="M230.43,196.67c.2,3.22-4.91,6.16-11.42,6.56s-11.95-1.87-12.15-5.09,4.91-6.15,11.42-6.56S230.23,193.45,230.43,196.67Z" fill="#e8bd54" fill-rule="evenodd"/><path d="M229.85,195.06a5.315,5.315,0,0,0-1.15-1.18c-1.4.19-3.15.58-4.84.95-2.87.61-6.19,1.37-8.92,2.07-2.6.67-6.09,1.43-7.82,2.29a3.885,3.885,0,0,0,.75,1.11c4.59-.35,12.16-2.4,18.2-4.13C227.21,195.83,228.74,195.51,229.85,195.06Z" fill="#fff"/><path d="M171.93,215.16a33.874,33.874,0,0,1-3.06-2.29c-2.9-2.69-5.06-7.54-.64-9.99,1.61-.89,4.23-.78,6.15-.13a44.524,44.524,0,0,1,9.85,5.63c3.31,2.4,7.52,5.57,8.58,8.03a5.694,5.694,0,0,1-2.98,7.57c-3.06,1.29-6.43-1.05-10.16-3.42C176.94,218.82,174.55,217.07,171.93,215.16Z" fill="#334f70" fill-rule="evenodd"/><path d="M168.87,212.86a30.441,30.441,0,0,0,3.06,2.29c1.38,1,2.7,1.97,4.03,2.91-.25-3.94.74-9.09,7.12-10.5a40.916,40.916,0,0,0-8.7-4.81c-1.92-.65-4.54-.76-6.15.13C163.81,205.33,165.97,210.17,168.87,212.86Z" fill="#f8d71d"/><path d="M179.83,217.48c-.52-1.06-2.2-2.14-3.92-3.09-.74-.41-1.93-1.05-2.38-.44-.53.74.72,1.69,1.17,2.02a13.8,13.8,0,0,0,4.52,2.3A1,1,0,0,0,179.83,217.48Z" fill="#fff" fill-rule="evenodd"/><path d="M176.94,212.79c1.39-1.31-1.96-3.81-2.76-2.45-.35.59.82,2.41,1.8,2.72A1,1,0,0,0,176.94,212.79Z" fill="#fff" fill-rule="evenodd"/><path d="M203.78,163.04a38.318,38.318,0,0,0-2.57,9.78c-.41,3.64.88,6.49,3.31,7.26,2.69.85,5.17-1.49,6.62-3.31,1.96-2.46,3.41-5.98,4.63-9.49C212.57,161.89,207.1,162.21,203.78,163.04Z" fill="#ff8c9b"/><path d="M213.82,148.37a7.224,7.224,0,0,0-1.66.38c-3.29,1.57-5.39,6.99-6.88,10.57-.52,1.25-1.03,2.48-1.51,3.72,3.32-.83,8.79-1.15,11.99,4.24.49-1.4.93-2.8,1.36-4.14a35.505,35.505,0,0,0,2.04-7.77C219.52,150.77,217.49,147.89,213.82,148.37Z" fill="#25364f"/><path d="M211.1,153.89c.03,1.31-1.08,3.23-2.29,5.05-.52.78-1.37,2.02-2.12,1.64-.9-.46-.15-2.03.12-2.59a14.881,14.881,0,0,1,3.29-4.57A1.134,1.134,0,0,1,211.1,153.89Z" fill="#fff" fill-rule="evenodd"/><path d="M210.63,159.99c2.04.59.01,4.76-1.47,3.82-.64-.41-.42-2.79.39-3.6A1.1,1.1,0,0,1,210.63,159.99Z" fill="#fff" fill-rule="evenodd"/><path d="M203.74,169.83c.74.13.98,1.2.8,2.27-.14.86-.79,2.46-1.69,1.99a2,2,0,0,1-.58-1.93C202.42,171.12,202.79,169.66,203.74,169.83Z" fill="#fff" fill-rule="evenodd"/><path d="M317.11,199.62l-5.89,2.86c-2.9,1.41-2.94,7.3-.1,13.17s7.5,9.48,10.41,8.08l5.89-2.86Z" fill="#e8bd54" fill-rule="evenodd"/><path d="M317.11,199.62l-5.89,2.86c-2.9,1.41-2.94,7.3-.1,13.17s7.5,9.48,10.41,8.08l5.89-2.86Z" fill="#334f70" fill-rule="evenodd" opacity="0.14"/><path d="M327.42,220.86c-2.9,1.41-7.56-2.21-10.41-8.07s-2.8-11.76.1-13.17,7.56,2.21,10.41,8.07S330.32,219.45,327.42,220.86Z" fill="#e8bd54" fill-rule="evenodd"/><path d="M328.69,219.71a5.181,5.181,0,0,0,.65-1.51c-.71-1.22-1.73-2.69-2.71-4.12-1.66-2.42-3.61-5.21-5.3-7.47a53.828,53.828,0,0,0-5.08-6.37,3.986,3.986,0,0,0-.74,1.11c2.07,4.12,6.84,10.34,10.73,15.26C326.98,217.56,327.86,218.85,328.69,219.71Z" fill="#fff"/><path d="M288.09,282.11l3.69,5.41c1.82,2.66,7.65,1.84,13.04-1.83s8.28-8.81,6.47-11.47l-3.69-5.41Z" fill="#e8bd54" fill-rule="evenodd"/><path d="M288.09,282.11l3.69,5.41c1.82,2.66,7.65,1.85,13.04-1.83s8.28-8.81,6.47-11.47l-3.69-5.41Z" fill="#334f70" fill-rule="evenodd" opacity="0.14"/><path d="M307.6,268.81c1.81,2.66-1.08,7.8-6.47,11.48s-11.23,4.49-13.04,1.83,1.08-7.8,6.46-11.47C299.95,266.96,305.79,266.15,307.6,268.81Z" fill="#e8bd54" fill-rule="evenodd"/><path d="M306.28,267.72a5.085,5.085,0,0,0-1.59-.43c-1.11.88-2.41,2.1-3.68,3.28-2.15,2-4.62,4.34-6.61,6.34a52.8,52.8,0,0,0-5.55,5.96,3.863,3.863,0,0,0,1.21.57c3.77-2.65,9.23-8.28,13.53-12.85C304.4,269.73,305.55,268.68,306.28,267.72Z" fill="#fff"/><path d="M290.47,251.95a33.142,33.142,0,0,0-3.07,2.27c-2.91,2.68-5.11,7.5-.7,9.98,1.6.9,4.23.81,6.15.16a44.43,44.43,0,0,0,9.89-5.57c3.33-2.37,7.56-5.52,8.63-7.98a5.7,5.7,0,0,0-2.93-7.59c-3.05-1.31-6.44,1.01-10.18,3.36C295.5,248.32,293.11,250.05,290.47,251.95Z" fill="#334f70" fill-rule="evenodd"/><path d="M287.4,254.23a31.4,31.4,0,0,1,3.07-2.27c1.39-1,2.71-1.95,4.05-2.88-.27,3.94.69,9.09,7.05,10.54a41.278,41.278,0,0,1-8.73,4.76c-1.92.64-4.54.74-6.15-.16C282.29,261.73,284.48,256.9,287.4,254.23Z" fill="#c64f69"/><path d="M298.39,249.67c-.53,1.06-2.22,2.12-3.94,3.07-.74.4-1.94,1.04-2.38.42-.53-.74.73-1.68,1.18-2.01a13.543,13.543,0,0,1,4.54-2.27A1.064,1.064,0,0,1,298.39,249.67Z" fill="#fff" fill-rule="evenodd"/><path d="M295.46,254.35c1.38,1.32-1.98,3.8-2.78,2.43-.34-.59.83-2.4,1.82-2.71A.993.993,0,0,1,295.46,254.35Z" fill="#fff" fill-rule="evenodd"/><path d="M273.36,280.25a38.568,38.568,0,0,1,7.75,6.5c2.43,2.74,3.03,5.81,1.49,7.84-1.7,2.24-5.07,1.77-7.32,1.12-3.02-.87-6.24-2.91-9.26-5.07C265.52,284.39,270.17,281.49,273.36,280.25Z" fill="#ff8c9b"/><path d="M256.69,274.07a7.279,7.279,0,0,1,1.57-.64c3.59-.62,8.44,2.59,11.72,4.66,1.14.72,2.27,1.43,3.38,2.17-3.19,1.24-7.83,4.14-7.34,10.39-1.21-.87-2.38-1.75-3.5-2.59a34.908,34.908,0,0,1-6.15-5.16C253.42,279.33,253.41,275.8,256.69,274.07Z" fill="#25364f"/><path d="M262.1,277c.73,1.09,2.75,2.01,4.78,2.8.87.34,2.29.86,2.68.11.47-.9-1.05-1.74-1.59-2.04a14.957,14.957,0,0,0-5.33-1.83A1.145,1.145,0,0,0,262.1,277Z" fill="#fff" fill-rule="evenodd"/><path d="M266,281.72c-1.32,1.66,2.74,3.89,3.41,2.27.29-.71-1.27-2.52-2.4-2.72A1.121,1.121,0,0,0,266,281.72Z" fill="#fff" fill-rule="evenodd"/><path d="M277.31,285.77c-.53.54-.1,1.54.66,2.32.61.63,2.06,1.55,2.53.65a2.028,2.028,0,0,0-.64-1.91C279.13,286.06,277.99,285.08,277.31,285.77Z" fill="#fff" fill-rule="evenodd"/><path d="M179.93,158.56c3.81,1.63,5.19,4.67,3.41,8.51-1.94,4.18-6.08,6.75-8.87,8.52a60.88,60.88,0,0,1-25.24,9.22c-1.95.27-3.82.64-5.43.19a7.472,7.472,0,0,1-3.91-2.89c-1.72-2.58-.99-6.43,1.91-10.26a20.937,20.937,0,0,1,4.01-3.55,58.107,58.107,0,0,1,12.7-7c5.67-2.24,12.27-4.42,18.51-3.57A11.239,11.239,0,0,1,179.93,158.56Z" fill="#c1d5e8" fill-rule="evenodd"/><path d="M188.02,179.54a6.076,6.076,0,0,0,.27-5.34h.01l-4.36-11.56a6.562,6.562,0,0,1-.6,4.44c-1.94,4.18-6.08,6.75-8.87,8.52a60.88,60.88,0,0,1-25.24,9.22c-1.95.27-3.82.64-5.43.19a7.472,7.472,0,0,1-3.91-2.89,4.942,4.942,0,0,1-.53-1.02l4.49,11.85a5.248,5.248,0,0,0,.72,1.62,7.471,7.471,0,0,0,3.91,2.9c1.62.45,3.49.07,5.44-.2a60.88,60.88,0,0,0,25.24-9.22C181.95,186.28,186.08,183.71,188.02,179.54Z" fill="#334f70"/><path d="M188.02,179.54c.09-.18.16-.36.23-.54-1.54-3.57-2.92-7.85-5.29-11.17a13.993,13.993,0,0,1-1.64,2.34c.07.15.13.29.19.44a74.4,74.4,0,0,0,4.41,8.79c.33.56.68,1.26,1.1,1.9A13.789,13.789,0,0,0,188.02,179.54Z" fill="#c1d5e8"/><path d="M177.75,173.4c-.51.38-1.02.73-1.51,1.06a8.635,8.635,0,0,1,.9,1.1c1.21,1.94,2.05,4.32,3.25,6.43a36.719,36.719,0,0,0,2.12,3.13c.1.14.2.3.31.46.56-.42,1.11-.88,1.65-1.37-.05-.09-.11-.19-.15-.28C182.69,180.85,180.32,176.08,177.75,173.4Z" fill="#c1d5e8"/><path d="M177.01,183.48c-1.16-2.64-2.33-5.47-3.85-7.08-.51.31-1.03.61-1.54.91.05,1.04.85,2,1.26,2.96,1.14,2.6,1.91,5.12,3.25,7.58.25.45.52,1.01.85,1.53.68-.4,1.36-.8,2.04-1.23-.14-.33-.29-.67-.41-.99C178.13,185.96,177.54,184.67,177.01,183.48Z" fill="#c1d5e8"/><path d="M171.93,189.3c-1.05-2.27-1.96-4.59-3.03-6.7a10.436,10.436,0,0,0-1.82-2.94c-.57.27-1.14.52-1.72.77a7.051,7.051,0,0,0,.71,2.61,41.009,41.009,0,0,0,3.72,7.1,11.122,11.122,0,0,0,1.43,2.24c.58-.26,1.16-.53,1.74-.82A11.324,11.324,0,0,0,171.93,189.3Z" fill="#c1d5e8"/><path d="M163.85,188.62a44.224,44.224,0,0,0-3.1-6.44c-.71.24-1.43.46-2.16.67a20.2,20.2,0,0,0,.67,2.18,69.171,69.171,0,0,0,3.25,8.13,19.123,19.123,0,0,0,1.07,2.05c.85-.25,1.69-.53,2.53-.81-.22-.61-.55-1.23-.77-1.81C164.83,191.31,164.42,189.9,163.85,188.62Z" fill="#c1d5e8"/><path d="M155.91,187.17a10.719,10.719,0,0,0-1.8-3.2c-.5.11-1.01.21-1.52.3a9.723,9.723,0,0,0,.82,3.39,60.335,60.335,0,0,0,3.37,7.51c.23.44.46,1,.76,1.51.71-.13,1.42-.28,2.12-.44-.22-.59-.55-1.19-.77-1.77C157.95,191.97,157.04,189.64,155.91,187.17Z" fill="#c1d5e8"/><path d="M150.71,195.19c-.95-2.49-1.86-4.94-2.79-7.38a18.737,18.737,0,0,0-1.12-2.67,10.061,10.061,0,0,1-1.89.05,15.621,15.621,0,0,0,.96,2.42c.94,2.64,1.66,5.12,2.75,7.68a13.759,13.759,0,0,0,1.1,2.38,11.5,11.5,0,0,0,1.84-.07A9.519,9.519,0,0,0,150.71,195.19Z" fill="#c1d5e8"/><path d="M143.54,180.46c.25,1.56-3.66.36-2.59-.78C141.5,179.09,142.99,179.92,143.54,180.46Z" fill="#fff" fill-rule="evenodd"/><path d="M145.3,182.58c-.26-.21-.68-.79-.21-1.27.61-.64,2.32-.24,3.04-.21.87.04,2.51-.29,2.96.59.64,1.24-1.88,1.32-2.75,1.31-.46,0-.91-.05-1.3-.08C146.36,182.88,145.79,182.98,145.3,182.58Z" fill="#fff" fill-rule="evenodd"/><path d="M171.07,160.01c.94-.7,5.66-.09,5.36,1.5-.25,1.3-4.4.67-5.29-.39C170.9,160.85,170.85,160.61,171.07,160.01Z" fill="#fff" fill-rule="evenodd"/><path d="M175.68,164.63c-.19-1.56,2.16-1.16,2.25-.23C178.06,165.66,175.85,166,175.68,164.63Z" fill="#fff" fill-rule="evenodd"/><path d="M178.5,161.57c.11-1.49,3.68-.85,3.4.49-.12.56-.53.64-1.26.69C179.55,162.81,178.42,162.61,178.5,161.57Z" fill="#fff" fill-rule="evenodd"/><path d="M205.64,228.99c1.49,2.34,2.42,4.53,4.71,5.6,3.19,1.5,8.63.49,11.59,2.17,2.17,1.23,3.82,4.39,5.35,7,1.61,2.75,3.11,5.4,4.46,7.89,2.95,5.48,6,10.82,8.91,15.79,1.64,2.79,2.8,5.58,4.08,8.28,2.63,5.56,4.93,11.07,7.38,17.32,1.2,3.05,3.1,8.13,1.78,11.71-1.37,3.72-6.38,6.14-10.19,8.02-10.68,5.28-19.9,9.85-30.95,14.64-2.9,1.26-6.57,2.8-10.06,1.4a13.646,13.646,0,0,1-4.33-3.69,51.082,51.082,0,0,1-4.2-7.13c-5.28-9.65-10.11-19.62-15.54-29.8-2.64-4.95-4.86-9.92-7.26-15.41-1.35-3.09-2.57-6.35-1.91-9.81.47-2.42,2.01-4.52,3.31-6.37,1.28-1.83,3.04-3.98,3.18-6.5.14-2.45-.9-4.15-1.53-6.11,5.946-3.116,12.133-6.029,18.6-9.159,1.3-.632,2.882-1.4,4.455-2.181A77.6,77.6,0,0,1,205.64,228.99Z" fill="#13a8ba" fill-rule="evenodd"/><path d="M216.33,308.07c2.94-1.4,6.06-2.96,8.15-5.09a10.25,10.25,0,0,0,1.91-2.8c.98-2.61-.03-5.78-.89-8.28-.66-1.91-1.5-3.77-2.16-5.35-3.19-7.54-5.93-13.33-9.17-20.63-1.73-3.9-4.14-8.86-9.3-8.79-3.65.05-7.07,2.01-10.06,3.18-3.16,1.24-6.23,2.47-9.42,3.95a97.03,97.03,0,0,0-13.12,6.88c-.38.26-.81.54-1.24.85.11.27.23.54.34.81,2.4,5.49,4.62,10.46,7.26,15.41,5.43,10.18,10.26,20.15,15.54,29.8.1.18.2.37.3.56,4.32-2.06,8.97-4.6,12.82-6.42C210.41,310.68,213.29,309.52,216.33,308.07Z" fill="#c1d5e8"/><path d="M194.35,275c1.61-.43,4.32-2.08,6.74-2.23,1.72-.1,3.89,5.06,3.52,7.44-.2,1.3-4.08,2.49-5.97,3.83.7,1.8,2.69,4.92,1.68,5.82a14.456,14.456,0,0,1-5.36,2.76c-1.23.22-2.73-3.57-3.98-5.36-1.83.97-4.28,2.73-6.13,1.84-1-.48-2.78-3.78-3.06-5.21-.53-2.69,2.96-3.99,4.9-5.21-.47-1.62-1.58-2.57-1.38-4.44.19-1.72,3.01-3.63,5.05-3.83C193.12,270.15,193.43,273.1,194.35,275Z" fill="#fff" fill-rule="evenodd"/><path d="M211.71,290.89c-4.24,1.89-10.43,4.94-14.86,7.16a20.082,20.082,0,0,0-3.75,2.17c.65,1.16,1.28,2.34,1.91,3.5,1.71-.08,4.07-1.94,5.33-2.62,3.92-2.11,7.6-3.79,11.1-5.66.63-.34,1.36-.67,2.02-1.08C212.87,293.21,212.29,292.05,211.71,290.89Z" fill="#334f70" fill-rule="evenodd"/><path d="M216.74,300.29c-.47-.77-.91-1.54-1.34-2.32-1.71.44-3.32,1.81-4.61,2.47-3.02,1.55-7.45,3.75-10.45,5.23-.83.41-2.24.95-3.31,1.57l.09.15c.56.91,1.13,1.82,1.69,2.73.34-.18.7-.36,1.1-.53a142.166,142.166,0,0,0,13.72-6.97,26.805,26.805,0,0,0,3.39-1.9A3.957,3.957,0,0,1,216.74,300.29Z" fill="#334f70" fill-rule="evenodd"/><path d="M231.68,263.11c-1.68-1.21-3.02-4.44-4.15-7.68-.49-1.39-1.23-3.65-.04-4.22,1.43-.69,2.69,1.74,3.13,2.62a23.524,23.524,0,0,1,2.6,8.48A1.815,1.815,0,0,1,231.68,263.11Z" fill="#fff" fill-rule="evenodd"/><path d="M220.64,251.83c-2.68,1.99-5.98-4.52-3.39-5.49,1.13-.42,3.9,2.13,4.15,3.92A1.771,1.771,0,0,1,220.64,251.83Z" fill="#fff" fill-rule="evenodd"/><path d="M219.94,243.02c-.87.8-2.43.08-3.62-1.15-.96-1-2.33-3.34-.9-4.02.63-.31,1.96.1,2.98,1.11C219.59,240.13,221.06,241.98,219.94,243.02Z" fill="#fff" fill-rule="evenodd"/><path d="M206.53,322.69c-2.21,1.28,3.3,4.97,3.63,2.47C210.34,323.86,207.77,322.83,206.53,322.69Z" fill="#fff" fill-rule="evenodd"/><path d="M202.07,322.66c.53.11,1.67.05,1.81-1.04.18-1.42-2.08-3.16-2.85-4.02-.93-1.05-2.22-3.44-3.76-3.11-2.2.47.27,3.71,1.17,4.8.48.57,1,1.09,1.43,1.56C200.6,321.64,201.05,322.45,202.07,322.66Z" fill="#fff" fill-rule="evenodd"/><path d="M205.99,221.73c-.67-1.23-1.11-2.27-1.94-3.55a9.511,9.511,0,0,0-3.37-3.36c-1.63-.71-3.6-.1-5.46.66-3.58,1.46-15.81,7.99-15.82,8-3.23,1.5-6.26,2.91-9.31,4.69-1.73,1-3.29,2.15-3.86,3.91-1.03,3.18,1.43,7.49,2,8.78,1.15,2.63,2.62,6.16,6.78,5.7A16.575,16.575,0,0,0,180,244.7c2.75-1.35,19.51-9.93,22.24-11.27a16.4,16.4,0,0,0,4.52-2.8C209.66,227.62,207.37,224.25,205.99,221.73Z" fill="#09808e" fill-rule="evenodd"/><path d="M168.37,234.52c4.26-2.18,8.36-4.07,12.6-6.17,1.12-.55,2.54-1.37,3.88-2.19.46-.28,2.3-1.03,1.84-1.83-.2-.35-.95-.3-1.47-.17a8.5,8.5,0,0,0-1.49.56,136.506,136.506,0,0,0-14.95,6.58c-.88.44-1.8.88-2.71,1.36a7.459,7.459,0,0,0,.1,2.93C167.01,235.2,167.75,234.84,168.37,234.52Z" fill="#13a8ba"/><path d="M199.16,216.98a31.854,31.854,0,0,0-6.01,3.46,3.431,3.431,0,0,0-.64.71.87.87,0,0,0,.02,1.04c.59.64,2.14-.08,3.08-.5,1.18-.53,2.26-1.04,3.12-1.48,1.69-.87,3.35-1.68,5.01-2.48a11.7,11.7,0,0,0-1.85-2.09C200.97,216.09,200.06,216.53,199.16,216.98Z" fill="#13a8ba"/><path d="M175.91,236.26c1.01-.54,3.42-1.7,2.73-2.66-.54-.75-2.27.08-3.39.55-2.39,1.02-4.86,2.33-6.99,3.43-.34.17-.79.37-1.26.59.29.71.58,1.34.83,1.85A84.421,84.421,0,0,0,175.91,236.26Z" fill="#13a8ba"/><path d="M204.08,224.99c-2.16,1.02-4.71,2.18-6.97,3.46-1.06.6-2.77,1.47-2.5,2.35.34,1.14,2.73-.07,3.77-.55a83.409,83.409,0,0,0,8.95-4.76c.14-.08.28-.17.42-.24a12.611,12.611,0,0,0-.73-1.64A20.156,20.156,0,0,0,204.08,224.99Z" fill="#13a8ba"/><path d="M187.64,235.76c.47-.26,2.57-1.41,2.22-2.19-.48-1.07-2.24-.1-2.76.08a76.39,76.39,0,0,0-8.41,3.81,91.35,91.35,0,0,0-8.44,4.54c-.34.22-.75.47-1.16.74a9.9,9.9,0,0,0,1.46,2.2c1.08-.59,2.14-1.22,3.21-1.83C178.46,240.45,182.84,238.46,187.64,235.76Z" fill="#13a8ba"/><path d="M188.51,227.66c-1.5.73-3.83,1.57-3.17,2.72,1.73.23,14.38-6.15,20.32-9.26-.3-.57-.56-1.11-.87-1.68C200.12,221.74,189.4,227.23,188.51,227.66Z" fill="#13a8ba"/></g></svg>